<mxfile host="65bd71144e">
    <diagram id="pIaEtrtLPv3HG8r1JEND" name="Page-1">
        <mxGraphModel dx="690" dy="534" grid="1" gridSize="10" guides="1" tooltips="1" connect="1" arrows="1" fold="1" page="1" pageScale="1" pageWidth="850" pageHeight="1100" math="0" shadow="0">
            <root>
                <mxCell id="0"/>
                <mxCell id="1" parent="0"/>
                <mxCell id="2" value="" style="rounded=0;whiteSpace=wrap;html=1;fillColor=#1ba1e2;fontColor=#ffffff;strokeColor=#006EAF;" parent="1" vertex="1">
                    <mxGeometry x="80" y="80" width="400" height="300" as="geometry"/>
                </mxCell>
                <mxCell id="4" value="Formula" style="shape=partialRectangle;whiteSpace=wrap;html=1;top=0;left=0;shadow=1;fillColor=#1ba1e2;fontColor=#ffffff;strokeColor=#006EAF;" parent="1" vertex="1">
                    <mxGeometry x="80" y="160" width="120" height="20" as="geometry"/>
                </mxCell>
                <mxCell id="6" value="Calculate" style="labelPosition=center;verticalLabelPosition=middle;align=center;html=1;shape=mxgraph.basic.button;dx=10;fillColor=#1ba1e2;fontColor=#ffffff;strokeColor=#006EAF;" parent="1" vertex="1">
                    <mxGeometry x="80" y="290" width="100" height="40" as="geometry"/>
                </mxCell>
                <mxCell id="7" value="Title" style="whiteSpace=wrap;html=1;fillColor=#1ba1e2;fontColor=#ffffff;strokeColor=#006EAF;" vertex="1" parent="1">
                    <mxGeometry x="80" y="100" width="210" height="60" as="geometry"/>
                </mxCell>
                <mxCell id="8" value="enter a base:&lt;br&gt;enter b base:&lt;br&gt;height:" style="whiteSpace=wrap;html=1;shadow=1;fillColor=#1ba1e2;fontColor=#ffffff;strokeColor=#006EAF;" vertex="1" parent="1">
                    <mxGeometry x="80" y="200" width="100" height="60" as="geometry"/>
                </mxCell>
                <mxCell id="9" value="mm" style="text;html=1;resizable=0;autosize=1;align=center;verticalAlign=middle;points=[];fillColor=none;strokeColor=none;rounded=0;shadow=1;" vertex="1" parent="1">
                    <mxGeometry x="270" y="220" width="40" height="20" as="geometry"/>
                </mxCell>
                <mxCell id="12" value="mm" style="text;html=1;resizable=0;autosize=1;align=center;verticalAlign=middle;points=[];fillColor=none;strokeColor=none;rounded=0;shadow=1;" vertex="1" parent="1">
                    <mxGeometry x="270" y="200" width="40" height="20" as="geometry"/>
                </mxCell>
                <mxCell id="13" value="mm" style="text;html=1;resizable=0;autosize=1;align=center;verticalAlign=middle;points=[];rounded=0;shadow=1;" vertex="1" parent="1">
                    <mxGeometry x="270" y="240" width="40" height="20" as="geometry"/>
                </mxCell>
                <mxCell id="14" value="" style="whiteSpace=wrap;html=1;shadow=1;fillColor=#E1CEED;" vertex="1" parent="1">
                    <mxGeometry x="180" y="240" width="90" height="20" as="geometry"/>
                </mxCell>
                <mxCell id="15" value="" style="whiteSpace=wrap;html=1;shadow=1;fillColor=#E1CEED;" vertex="1" parent="1">
                    <mxGeometry x="180" y="220" width="90" height="20" as="geometry"/>
                </mxCell>
                <mxCell id="16" value="" style="whiteSpace=wrap;html=1;shadow=1;fillColor=#E1CEED;" vertex="1" parent="1">
                    <mxGeometry x="180" y="200" width="90" height="20" as="geometry"/>
                </mxCell>
                <mxCell id="19" value="Answers:" style="text;html=1;resizable=0;autosize=1;align=center;verticalAlign=middle;points=[];fillColor=none;strokeColor=none;rounded=0;shadow=1;" vertex="1" parent="1">
                    <mxGeometry x="80" y="340" width="60" height="20" as="geometry"/>
                </mxCell>
            </root>
        </mxGraphModel>
    </diagram>
</mxfile>